<svg width="20" height="20" viewBox="0 0 20 20" fill="none" xmlns="http://www.w3.org/2000/svg">
<path d="M17.43 10.98C17.47 10.66 17.5 10.34 17.5 10C17.5 9.66 17.47 9.34 17.43 9.02L19.53 7.37C19.73 7.22 19.78 6.95 19.66 6.73L17.66 3.27C17.54 3.05 17.26 2.97 17.06 3.05L14.56 4.05C14.04 3.65 13.48 3.32 12.86 3.07L12.49 0.42C12.43 0.18 12.22 0 11.99 0H7.99002C7.72002 0 7.51002 0.18 7.49002 0.42L7.09002 3.07C6.49002 3.32 5.92002 3.67 5.39002 4.05L2.91002 3.05C2.68002 2.95 2.41002 3.05 2.31002 3.27L0.310023 6.73C0.170023 6.95 0.230023 7.23 0.410023 7.37L2.53002 9.02C2.49002 9.34 2.46002 9.67 2.46002 10C2.46002 10.33 2.48002 10.66 2.52002 10.98L0.420023 12.63C0.220023 12.78 0.170023 13.05 0.290023 13.27L2.29002 16.73C2.41002 16.95 2.69002 17.03 2.89002 16.95L5.39002 15.95C5.91002 16.35 6.47002 16.68 7.09002 16.93L7.46002 19.58C7.50002 19.82 7.71002 20 7.96002 20H11.96C12.21 20 12.42 19.82 12.46 19.58L12.83 16.93C13.43 16.68 14 16.33 14.53 15.95L17.01 16.95C17.24 17.05 17.51 16.95 17.61 16.73L19.61 13.27C19.74 13.05 19.69 12.77 19.51 12.63L17.39 10.98H17.43ZM10 13.5C8.07002 13.5 6.50002 11.93 6.50002 10C6.50002 8.07 8.07002 6.5 10 6.5C11.93 6.5 13.5 8.07 13.5 10C13.5 11.93 11.93 13.5 10 13.5Z" fill="#606060"/>
</svg>
