<svg width="14" height="18" viewBox="0 0 14 18" fill="none" xmlns="http://www.w3.org/2000/svg">
<path d="M12.5301 8.2C12.3001 7.9 12.0301 7.64 11.7701 7.38C11.1201 6.78 10.3701 6.35 9.74009 5.72C8.28009 4.26 7.96009 1.85 8.89009 0C7.99009 0.23 7.14009 0.75 6.44009 1.32C3.90009 3.4 2.90009 7.07 4.10009 10.22C4.14009 10.32 4.18009 10.42 4.18009 10.55C4.18009 10.77 4.03009 10.97 3.83009 11.05C3.61009 11.15 3.37009 11.09 3.19009 10.93C3.13009 10.88 3.09009 10.83 3.04009 10.76C1.94009 9.33 1.76009 7.28 2.51009 5.64C0.87009 7 8.94219e-05 9.3 0.120089 11.47C0.160089 11.97 0.220089 12.47 0.390089 12.97C0.530089 13.57 0.79009 14.17 1.11009 14.7C2.15009 16.43 3.98009 17.67 5.95009 17.92C8.05009 18.19 10.3001 17.8 11.9101 16.32C13.7101 14.66 14.3601 12.02 13.4101 9.72L13.2801 9.46C13.0801 9.01 12.8101 8.59 12.5001 8.21L12.5301 8.2ZM9.43009 14.5C9.15009 14.74 8.70009 15 8.35009 15.1C7.25009 15.48 6.15009 14.94 5.47009 14.28C6.67009 14 7.37009 13.12 7.57009 12.23C7.74009 11.43 7.43009 10.77 7.30009 10C7.18009 9.26 7.20009 8.63 7.50009 7.94C7.65009 8.32 7.85009 8.7 8.08009 9C8.84009 10 10.0301 10.44 10.2801 11.8C10.3201 11.94 10.3401 12.08 10.3401 12.23C10.3701 13.05 10.0201 13.95 9.42009 14.49L9.43009 14.5Z" fill="#606060"/>
</svg>
