<svg width="28" height="28" viewBox="0 0 28 28" fill="none" xmlns="http://www.w3.org/2000/svg">
<g filter="url(#filter0_dd_38_6)">
<path d="M23.78 8.00001C23.78 8.00001 23.58 6.63001 22.98 6.03001C22.23 5.23001 21.38 5.23001 20.98 5.18001C18.2 4.98001 14 5.00001 14 5.00001C14 5.00001 9.82 4.98001 7.03 5.18001C6.63 5.23001 5.79 5.23001 5.03 6.03001C4.43 6.63001 4.23 8.00001 4.23 8.00001C4.23 8.00001 4.03 9.63001 4 11.23V12.93C4.03 14.53 4.23 16.13 4.23 16.13C4.23 16.13 4.43 17.53 5.03 18.13C5.79 18.93 6.78 18.89 7.23 18.98C8.8 19.13 13.83 19.16 14 19.16C14 19.16 18.2 19.16 21 18.96C21.38 18.92 22.23 18.92 23 18.12C23.6 17.52 23.8 16.14 23.8 16.14C23.8 16.14 24 14.54 24 12.92V11.22C23.98 9.62001 23.78 8.00001 23.78 8.00001ZM11.98 15V9.16001L17.33 12.19L11.97 15H11.98Z" fill="#606060"/>
</g>
<defs>
<filter id="filter0_dd_38_6" x="-2" y="0" width="32" height="32" filterUnits="userSpaceOnUse" color-interpolation-filters="sRGB">
<feFlood flood-opacity="0" result="BackgroundImageFix"/>
<feColorMatrix in="SourceAlpha" type="matrix" values="0 0 0 0 0 0 0 0 0 0 0 0 0 0 0 0 0 0 127 0" result="hardAlpha"/>
<feOffset dy="4"/>
<feGaussianBlur stdDeviation="2"/>
<feComposite in2="hardAlpha" operator="out"/>
<feColorMatrix type="matrix" values="0 0 0 0 0 0 0 0 0 0 0 0 0 0 0 0 0 0 0.25 0"/>
<feBlend mode="normal" in2="BackgroundImageFix" result="effect1_dropShadow_38_6"/>
<feColorMatrix in="SourceAlpha" type="matrix" values="0 0 0 0 0 0 0 0 0 0 0 0 0 0 0 0 0 0 127 0" result="hardAlpha"/>
<feOffset dy="4"/>
<feGaussianBlur stdDeviation="2"/>
<feComposite in2="hardAlpha" operator="out"/>
<feColorMatrix type="matrix" values="0 0 0 0 0 0 0 0 0 0 0 0 0 0 0 0 0 0 0.25 0"/>
<feBlend mode="normal" in2="effect1_dropShadow_38_6" result="effect2_dropShadow_38_6"/>
<feBlend mode="normal" in="SourceGraphic" in2="effect2_dropShadow_38_6" result="shape"/>
</filter>
</defs>
</svg>
